<mxfile host="Electron" modified="2024-07-17T23:00:39.429Z" agent="Mozilla/5.0 (X11; Linux x86_64) AppleWebKit/537.36 (KHTML, like Gecko) draw.io/24.6.1 Chrome/124.0.6367.243 Electron/30.1.2 Safari/537.36" etag="migoytDWi33AEnaCHLhD" version="24.6.1" type="device">
  <diagram name="Página-1" id="EFKo_zP-QpHvKHFFVJdx">
    <mxGraphModel dx="1520" dy="521" grid="1" gridSize="10" guides="1" tooltips="1" connect="1" arrows="1" fold="1" page="0" pageScale="1" pageWidth="850" pageHeight="1100" math="0" shadow="0">
      <root>
        <mxCell id="0" />
        <mxCell id="1" parent="0" />
        <mxCell id="dpD7loJlFiz2zb1GrCrO-6" style="edgeStyle=orthogonalEdgeStyle;rounded=0;orthogonalLoop=1;jettySize=auto;html=1;exitX=0.5;exitY=1;exitDx=0;exitDy=0;entryX=0.5;entryY=0;entryDx=0;entryDy=0;" edge="1" parent="1" source="dpD7loJlFiz2zb1GrCrO-1" target="dpD7loJlFiz2zb1GrCrO-5">
          <mxGeometry relative="1" as="geometry" />
        </mxCell>
        <mxCell id="dpD7loJlFiz2zb1GrCrO-1" value="Agregar contacto" style="rounded=1;whiteSpace=wrap;html=1;" vertex="1" parent="1">
          <mxGeometry x="-160" y="30" width="120" height="30" as="geometry" />
        </mxCell>
        <mxCell id="dpD7loJlFiz2zb1GrCrO-2" value="Recibe &quot;c&quot; de tipo Contacto" style="text;html=1;align=center;verticalAlign=middle;whiteSpace=wrap;rounded=0;" vertex="1" parent="1">
          <mxGeometry x="-30" y="30" width="90" height="30" as="geometry" />
        </mxCell>
        <mxCell id="dpD7loJlFiz2zb1GrCrO-8" style="edgeStyle=orthogonalEdgeStyle;rounded=0;orthogonalLoop=1;jettySize=auto;html=1;exitX=0.5;exitY=1;exitDx=0;exitDy=0;entryX=0.5;entryY=0;entryDx=0;entryDy=0;" edge="1" parent="1" source="dpD7loJlFiz2zb1GrCrO-5" target="dpD7loJlFiz2zb1GrCrO-7">
          <mxGeometry relative="1" as="geometry" />
        </mxCell>
        <mxCell id="dpD7loJlFiz2zb1GrCrO-5" value="Definir conn como Conexión" style="rounded=0;whiteSpace=wrap;html=1;" vertex="1" parent="1">
          <mxGeometry x="-180" y="80" width="160" height="30" as="geometry" />
        </mxCell>
        <mxCell id="dpD7loJlFiz2zb1GrCrO-10" style="edgeStyle=orthogonalEdgeStyle;rounded=0;orthogonalLoop=1;jettySize=auto;html=1;exitX=0.5;exitY=1;exitDx=0;exitDy=0;entryX=0.5;entryY=0;entryDx=0;entryDy=0;" edge="1" parent="1" source="dpD7loJlFiz2zb1GrCrO-7" target="dpD7loJlFiz2zb1GrCrO-9">
          <mxGeometry relative="1" as="geometry" />
        </mxCell>
        <mxCell id="dpD7loJlFiz2zb1GrCrO-7" value="Definir pStmt como Sentencia Peparada" style="rounded=0;whiteSpace=wrap;html=1;" vertex="1" parent="1">
          <mxGeometry x="-180" y="130" width="160" height="40" as="geometry" />
        </mxCell>
        <mxCell id="dpD7loJlFiz2zb1GrCrO-9" value="Definir pStmt como Sentencia Peparada" style="rounded=0;whiteSpace=wrap;html=1;" vertex="1" parent="1">
          <mxGeometry x="-180" y="190" width="160" height="40" as="geometry" />
        </mxCell>
      </root>
    </mxGraphModel>
  </diagram>
</mxfile>
